<svg xmlns="http://www.w3.org/2000/svg" viewBox="0 0 64 64" shape-rendering="crispEdges">
  <rect width="64" height="64" fill="#060b14" />
  <rect x="2" y="2" width="60" height="60" fill="none" stroke="#22d3ee" stroke-width="2" />
  <rect x="8" y="8" width="48" height="48" fill="#0b1220" />

  <rect x="14" y="14" width="18" height="18" fill="#0891b2" />
  <rect x="32" y="14" width="18" height="18" fill="#16a34a" />
  <rect x="14" y="32" width="18" height="18" fill="#dc2626" />
  <rect x="32" y="32" width="18" height="18" fill="#7c3aed" />

  <rect x="30" y="12" width="4" height="40" fill="#0b1220" />
  <rect x="12" y="30" width="40" height="4" fill="#0b1220" />

  <rect x="28" y="24" width="8" height="16" fill="#fde047" />
  <rect x="24" y="28" width="16" height="8" fill="#fde047" />
  <rect x="30" y="26" width="4" height="12" fill="#fef9c3" />
  <rect x="26" y="30" width="12" height="4" fill="#fef9c3" />

  <rect x="50" y="10" width="4" height="4" fill="#67e8f9" />
  <rect x="46" y="14" width="4" height="4" fill="#67e8f9" />
  <rect x="50" y="14" width="4" height="4" fill="#ecfeff" />
  <rect x="54" y="14" width="4" height="4" fill="#67e8f9" />
  <rect x="50" y="18" width="4" height="4" fill="#67e8f9" />
</svg>
